<svg xmlns="http://www.w3.org/2000/svg" viewBox="0 0 420 420" width="420" height="420">
  <rect width="420" height="420" rx="16" fill="#0d0d14"/>
  <text x="210" y="32" text-anchor="middle" font-family="monospace" font-size="14" fill="#a29bfe">LEARNING RADAR</text>
  <g transform="translate(210 225)" fill="none" stroke="#2a2a3d">
    <circle r="40"/><circle r="80"/><circle r="120"/><circle r="160"/>
    <line x1="-160" y1="0" x2="160" y2="0"/><line x1="0" y1="-160" x2="0" y2="160"/>
    <g>
      <path d="M0 0 L160 0 A160 160 0 0 0 138 -80 Z" fill="#ff9f43" fill-opacity=".25" stroke="none"/>
      <line x1="0" y1="0" x2="160" y2="0" stroke="#ff9f43" stroke-width="2"/>
      <animateTransform attributeName="transform" type="rotate" from="0" to="360" dur="6s" repeatCount="indefinite"/>
    </g>
    <g stroke="none" font-family="monospace" font-size="12" fill="#e6e6f0">
      <circle cx="90" cy="-60" r="5" fill="#ff9f43"><animate attributeName="r" values="4;8;4" dur="2s" repeatCount="indefinite"/></circle>
      <text x="100" y="-66">DSA (C++)</text>
      <circle cx="-100" cy="-40" r="5" fill="#a29bfe"><animate attributeName="r" values="4;8;4" dur="2.4s" repeatCount="indefinite"/></circle>
      <text x="-150" y="-52">Backend APIs</text>
      <circle cx="-60" cy="80" r="5" fill="#74b9ff"><animate attributeName="r" values="4;8;4" dur="2.8s" repeatCount="indefinite"/></circle>
      <text x="-120" y="105">Web Dev</text>
      <circle cx="70" cy="95" r="5" fill="#55efc4"><animate attributeName="r" values="4;8;4" dur="2.2s" repeatCount="indefinite"/></circle>
      <text x="82" y="112">AI / ML</text>
      <circle cx="10" cy="-125" r="5" fill="#fd79a8"><animate attributeName="r" values="4;8;4" dur="3s" repeatCount="indefinite"/></circle>
      <text x="22" y="-122">System Design</text>
    </g>
  </g>
</svg>
